<svg width="1100" height="432" xmlns="http://www.w3.org/2000/svg"><defs><linearGradient x1="50%" y1="0%" x2="50%" y2="151.962%" id="a"><stop stop-color="#5009C0" offset="0%"/><stop stop-color="#FF6351" offset="100%"/></linearGradient><linearGradient x1="50%" y1="0%" x2="50%" y2="100%" id="b"><stop stop-color="#FAD961" offset="0%"/><stop stop-color="#F76B1C" offset="100%"/></linearGradient><linearGradient x1="50%" y1="-70.106%" x2="50%" y2="100%" id="c"><stop stop-color="#5009C0" offset="0%"/><stop stop-color="#FF6351" offset="100%"/></linearGradient></defs><g fill="none" fill-rule="evenodd"><rect fill="url(#a)" x="71" y="152.535" width="180" height="180" rx="90"/><path d="M417.965 242.5c-11.045 0-20-8.954-20-20v-105c0-11.046 8.955-20 20-20h105c11.046 0 20 8.954 20 20v105c0 11.046-8.954 20-20 20" stroke="#000" stroke-width="2"/><rect fill="url(#b)" x="453" y="153.535" width="180" height="180" rx="90"/><text font-family="Alibaba-PuHuiTi-B, Alibaba PuHuiTi" font-size="28" font-weight="bold" fill="#FFF"><tspan x="128" y="252.535">Field</tspan></text><text font-family="Alibaba-PuHuiTi-B, Alibaba PuHuiTi" font-size="28" font-weight="bold" fill="#FFF"><tspan x="505" y="253.535">Field</tspan></text><path d="M439 235.535l14 7-14 7v-6.001H251.5v-2H439v-6z" fill="#000" fill-rule="nonzero"/><rect fill="url(#c)" x="849" y="153.035" width="180" height="180" rx="90"/><text font-family="Alibaba-PuHuiTi-M, Alibaba PuHuiTi" font-size="28" font-weight="400" fill="#FFF"><tspan x="865.5" y="253.035">Effect Data</tspan></text><path d="M836 236.035l14 7-14 7v-6.001H632.5v-2H836v-6z" fill="#000" fill-rule="nonzero"/></g></svg>