<svg xmlns="http://www.w3.org/2000/svg" width="2431" height="2037"><defs><linearGradient x1="50%" y1="0%" x2="50%" y2="100%" id="a"><stop stop-color="#F9F9F9" offset="0%"/><stop stop-color="#F1EFFF" offset="100%"/></linearGradient><linearGradient x1="50%" y1="0%" x2="50%" y2="133.206%" id="b"><stop stop-color="#F5EFFF" offset="0%"/><stop stop-color="#FFF" offset="100%"/></linearGradient><linearGradient x1="50%" y1="0%" x2="50%" y2="165.185%" id="c"><stop stop-color="#5009C0" offset="0%"/><stop stop-color="#FF6351" offset="100%"/></linearGradient><linearGradient x1="50%" y1="0%" x2="50%" y2="167.168%" id="d"><stop stop-color="#5009C0" offset="0%"/><stop stop-color="#FF6351" offset="100%"/></linearGradient><linearGradient x1="50%" y1="0%" x2="50%" y2="145.426%" id="e"><stop stop-color="#5009C0" offset="0%"/><stop stop-color="#FF6351" offset="100%"/></linearGradient><linearGradient x1="50%" y1="0%" x2="50.634%" y2="139.908%" id="f"><stop stop-color="#5009C0" offset="0%"/><stop stop-color="#FF6351" offset="100%"/></linearGradient></defs><g fill="none" fill-rule="evenodd"><rect fill="url(#a)" x="71" y="133" width="1740" height="1694.5" rx="10"/><path d="M105 720h1672c5.523 0 10 4.477 10 10v1063.5c0 5.523-4.477 10-10 10H105c-5.523 0-10-4.477-10-10V730c0-5.523 4.477-10 10-10z" fill="url(#b)"/><rect fill="#FFF" x="119" y="846" width="990" height="726" rx="10"/><rect fill="#FFF" x="1245" y="846.5" width="518" height="829" rx="10"/><path d="M129 1651.5h970c5.523 0 10 4.477 10 10v108c0 5.523-4.477 10-10 10H129c-5.523 0-10-4.477-10-10v-108c0-5.523 4.477-10 10-10z" fill="#FFF"/><path d="M1777 469c5.523 0 10 4.477 10 10v60c0 5.523-4.477 10-10 10H105c-5.523 0-10-4.477-10-10v-60c0-5.523 4.477-10 10-10h1672zM633 365c5.523 0 10 4.477 10 10v60c0 5.523-4.477 10-10 10H105c-5.523 0-10-4.477-10-10v-60c0-5.523 4.477-10 10-10h528zm1144 0c5.523 0 10 4.477 10 10v60c0 5.523-4.477 10-10 10h-528c-5.523 0-10-4.477-10-10v-60c0-5.523 4.477-10 10-10h528zm-572 0c5.523 0 10 4.477 10 10v60c0 5.523-4.477 10-10 10H677c-5.523 0-10-4.477-10-10v-60c0-5.523 4.477-10 10-10h528zM633 261c5.523 0 10 4.477 10 10v60c0 5.523-4.477 10-10 10H105c-5.523 0-10-4.477-10-10v-60c0-5.523 4.477-10 10-10h528zm1144 0c5.523 0 10 4.477 10 10v60c0 5.523-4.477 10-10 10h-528c-5.523 0-10-4.477-10-10v-60c0-5.523 4.477-10 10-10h528zm-572 0c5.523 0 10 4.477 10 10v60c0 5.523-4.477 10-10 10H677c-5.523 0-10-4.477-10-10v-60c0-5.523 4.477-10 10-10h528z" fill="url(#c)"/><path d="M449 727.5c5.523 0 10 4.477 10 10v60c0 5.523-4.477 10-10 10H10c-5.523 0-10-4.477-10-10v-60c0-5.523 4.477-10 10-10h439zm483 0c5.523 0 10 4.477 10 10v60c0 5.523-4.477 10-10 10H493c-5.523 0-10-4.477-10-10v-60c0-5.523 4.477-10 10-10h439zm0-207.5c5.523 0 10 4.477 10 10v60c0 5.523-4.477 10-10 10H10c-5.523 0-10-4.477-10-10v-60c0-5.523 4.477-10 10-10h922zM449 416c5.523 0 10 4.477 10 10v60c0 5.523-4.477 10-10 10H10c-5.523 0-10-4.477-10-10v-60c0-5.523 4.477-10 10-10h439zm483 0c5.523 0 10 4.477 10 10v60c0 5.523-4.477 10-10 10H493c-5.523 0-10-4.477-10-10v-60c0-5.523 4.477-10 10-10h439zM449 312c5.523 0 10 4.477 10 10v60c0 5.523-4.477 10-10 10H10c-5.523 0-10-4.477-10-10v-60c0-5.523 4.477-10 10-10h439zm483 0c5.523 0 10 4.477 10 10v60c0 5.523-4.477 10-10 10H493c-5.523 0-10-4.477-10-10v-60c0-5.523 4.477-10 10-10h439zM449 208c5.523 0 10 4.477 10 10v60c0 5.523-4.477 10-10 10H10c-5.523 0-10-4.477-10-10v-60c0-5.523 4.477-10 10-10h439zm483-.25c5.523 0 10 4.477 10 10v60c0 5.523-4.477 10-10 10H493c-5.523 0-10-4.477-10-10v-60c0-5.523 4.477-10 10-10h439zM449 104c5.523 0 10 4.477 10 10v60c0 5.523-4.477 10-10 10H10c-5.523 0-10-4.477-10-10v-60c0-5.523 4.477-10 10-10h439zm483-.25c5.523 0 10 4.477 10 10v60c0 5.523-4.477 10-10 10H493c-5.523 0-10-4.477-10-10v-60c0-5.523 4.477-10 10-10h439zM932 0c5.523 0 10 4.477 10 10v60c0 5.523-4.477 10-10 10H10C4.477 80 0 75.523 0 70V10C0 4.477 4.477 0 10 0h922z" transform="translate(143 948)" fill="url(#d)"/><path d="M1729 1571.5c5.523 0 10 4.477 10 10v60c0 5.523-4.477 10-10 10h-450c-5.523 0-10-4.477-10-10v-60c0-5.523 4.477-10 10-10h450zm0-104c5.523 0 10 4.477 10 10v60c0 5.523-4.477 10-10 10h-450c-5.523 0-10-4.477-10-10v-60c0-5.523 4.477-10 10-10h450zm0-104c5.523 0 10 4.477 10 10v60c0 5.523-4.477 10-10 10h-450c-5.523 0-10-4.477-10-10v-60c0-5.523 4.477-10 10-10h450zm0-104c5.523 0 10 4.477 10 10v60c0 5.523-4.477 10-10 10h-450c-5.523 0-10-4.477-10-10v-60c0-5.523 4.477-10 10-10h450zm0-103.75c5.523 0 10 4.477 10 10v60c0 5.523-4.477 10-10 10h-450c-5.523 0-10-4.477-10-10v-60c0-5.523 4.477-10 10-10h450zm0-104c5.523 0 10 4.477 10 10v60c0 5.523-4.477 10-10 10h-450c-5.523 0-10-4.477-10-10v-60c0-5.523 4.477-10 10-10h450zm0-104.25c5.523 0 10 4.477 10 10v60c0 5.523-4.477 10-10 10h-450c-5.523 0-10-4.477-10-10v-60c0-5.523 4.477-10 10-10h450z" fill="url(#e)"/><g fill="#FFF"><text font-family="Alibaba-PuHuiTi-R, Alibaba PuHuiTi" font-size="18" transform="translate(95 273.273)"><tspan x="186.043" y="51.455">inititalValues/values</tspan></text><text font-family="Alibaba-PuHuiTi-M, Alibaba PuHuiTi" font-size="24" font-weight="400" transform="translate(95 273.273)"><tspan x="238.576" y="25">表单值</tspan></text><text font-family="Alibaba-PuHuiTi-R, Alibaba PuHuiTi" font-size="18" transform="translate(95 273.273)"><tspan x="176.494" y="155.455">display/hidden/visible</tspan></text><text font-family="Alibaba-PuHuiTi-M, Alibaba PuHuiTi" font-size="24" font-weight="400" transform="translate(95 273.273)"><tspan x="226.768" y="129">显示隐藏</tspan></text><text font-family="Alibaba-PuHuiTi-R, Alibaba PuHuiTi" font-size="18" transform="translate(95 273.273)"><tspan x="1206.923" y="51.455">pattern/editable/disabled/readOnly/readPretty</tspan></text><text font-family="Alibaba-PuHuiTi-M, Alibaba PuHuiTi" font-size="24" font-weight="400" transform="translate(95 273.273)"><tspan x="1370.768" y="25">交互模式</tspan></text><text font-family="Alibaba-PuHuiTi-R, Alibaba PuHuiTi" font-size="18" transform="translate(95 273.273)"><tspan x="1301.261" y="155.455">setValues/setlnitalValues…</tspan></text><text font-family="Alibaba-PuHuiTi-M, Alibaba PuHuiTi" font-size="24" font-weight="400" transform="translate(95 273.273)"><tspan x="1378.136" y="129">Setters</tspan></text><text font-family="Alibaba-PuHuiTi-R, Alibaba PuHuiTi" font-size="18" transform="translate(95 273.273)"><tspan x="734.112" y="51.455">errors/warnings/sucesses</tspan></text><text font-family="Alibaba-PuHuiTi-M, Alibaba PuHuiTi" font-size="24" font-weight="400" transform="translate(95 273.273)"><tspan x="798.768" y="25">消息反馈</tspan></text><text font-family="Alibaba-PuHuiTi-R, Alibaba PuHuiTi" font-size="18" transform="translate(95 273.273)"><tspan x="808.299" y="155.455">LifeCycle</tspan></text><text font-family="Alibaba-PuHuiTi-M, Alibaba PuHuiTi" font-size="24" font-weight="400" transform="translate(95 273.273)"><tspan x="798.768" y="129">生命周期</tspan></text><text font-family="Alibaba-PuHuiTi-R, Alibaba PuHuiTi" font-size="18" transform="translate(95 273.273)"><tspan x="821.403" y="259.455">query</tspan></text><text font-family="Alibaba-PuHuiTi-M, Alibaba PuHuiTi" font-size="24" font-weight="400" transform="translate(95 273.273)"><tspan x="786.96" y="233">节点查询器</tspan></text></g><text font-family="Alibaba-PuHuiTi-R, Alibaba PuHuiTi" font-size="18" fill="#FFF"><tspan x="555.509" y="1011.727">address/path</tspan></text><text font-family="Alibaba-PuHuiTi-M, Alibaba PuHuiTi" font-size="24" font-weight="400" fill="#FFF"><tspan x="566.768" y="985.273">字段路径</tspan></text><text font-family="Alibaba-PuHuiTi-R, Alibaba PuHuiTi" font-size="18" fill="#FFF"><tspan x="189.701" y="1115.727">value/initialValue/inputValue/inputValues</tspan></text><text font-family="Alibaba-PuHuiTi-M, Alibaba PuHuiTi" font-size="24" font-weight="400" fill="#FFF"><tspan x="337.076" y="1089.273">字段值</tspan></text><text font-family="Alibaba-PuHuiTi-R, Alibaba PuHuiTi" font-size="18" fill="#FFF"><tspan x="574.526" y="1531.727">reactions</tspan></text><text font-family="Alibaba-PuHuiTi-M, Alibaba PuHuiTi" font-size="24" font-weight="400" fill="#FFF"><tspan x="531.344" y="1505.273">依赖追踪响应器</tspan></text><text font-family="Alibaba-PuHuiTi-R, Alibaba PuHuiTi" font-size="18" fill="#FFF"><tspan x="212.183" y="1219.727">feedbacks/errors/warnings/sucesses</tspan></text><text font-family="Alibaba-PuHuiTi-M, Alibaba PuHuiTi" font-size="24" font-weight="400" fill="#FFF"><tspan x="325.268" y="1193.273">消息反馈</tspan></text><text font-family="Alibaba-PuHuiTi-R, Alibaba PuHuiTi" font-size="18" fill="#FFF"><tspan x="334.043" y="1323.727">validator</tspan></text><text font-family="Alibaba-PuHuiTi-M, Alibaba PuHuiTi" font-size="24" font-weight="400" fill="#FFF"><tspan x="337.076" y="1297.273">校验器</tspan></text><text font-family="Alibaba-PuHuiTi-R, Alibaba PuHuiTi" font-size="18" fill="#FFF"><tspan x="277.163" y="1427.727">component/decorator</tspan></text><text font-family="Alibaba-PuHuiTi-M, Alibaba PuHuiTi" font-size="24" font-weight="400" fill="#FFF"><tspan x="307.46" y="1401.273">组件/装饰器</tspan></text><text font-family="Alibaba-PuHuiTi-R, Alibaba PuHuiTi" font-size="18" fill="#FFF"><tspan x="286.523" y="1739.227">push/insert/move...</tspan></text><text font-family="Alibaba-PuHuiTi-M, Alibaba PuHuiTi" font-size="24" font-weight="400" fill="#FFF"><tspan x="312.428" y="1712.773">ArrayField</tspan></text><text font-family="Alibaba-PuHuiTi-R, Alibaba PuHuiTi" font-size="18" fill="#FFF"><tspan x="757.994" y="1115.477">display/visible/hidden</tspan></text><text font-family="Alibaba-PuHuiTi-M, Alibaba PuHuiTi" font-size="24" font-weight="400" fill="#FFF"><tspan x="808.268" y="1089.023">显示隐藏</tspan></text><text font-family="Alibaba-PuHuiTi-R, Alibaba PuHuiTi" font-size="18" fill="#FFF"><tspan x="1445.509" y="1011.227">address/path</tspan></text><text font-family="Alibaba-PuHuiTi-M, Alibaba PuHuiTi" font-size="24" font-weight="400" fill="#FFF"><tspan x="1456.768" y="984.773">字段路径</tspan></text><path d="M2420 1596.5c5.523 0 10 4.477 10 10v76.59c0 5.524-4.477 10-10 10h-450c-5.523 0-10-4.476-10-10v-76.59c0-5.523 4.477-10 10-10h450zm0-400.333c5.523 0 10 4.477 10 10v76.59c0 5.523-4.477 10-10 10h-450c-5.523 0-10-4.477-10-10v-76.59c0-5.523 4.477-10 10-10h450zm0-400.334c5.523 0 10 4.477 10 10v76.591c0 5.523-4.477 10-10 10h-450c-5.523 0-10-4.477-10-10v-76.59c0-5.524 4.477-10 10-10h450zm0-400.333c5.523 0 10 4.477 10 10v76.59c0 5.524-4.477 10-10 10h-450c-5.523 0-10-4.476-10-10V405.5c0-5.523 4.477-10 10-10h450z" fill="url(#f)"/><text font-family="Alibaba-PuHuiTi-R, Alibaba PuHuiTi" font-size="18" fill="#FFF"><tspan x="2156.327" y="468.503">Observer</tspan></text><text font-family="Alibaba-PuHuiTi-M, Alibaba PuHuiTi" font-size="24" font-weight="400" fill="#FFF"><tspan x="2135.96" y="435.318">数据消费方</tspan></text><path stroke="#000" stroke-width="2" stroke-linecap="square" d="M1960.5 444.5h-22"/><path d="M1825 437.5v6h20v2h-20v6l-14-7 14-7z" fill="#000" fill-rule="nonzero"/><text font-family="Alibaba-PuHuiTi-M, Alibaba PuHuiTi" font-size="20" font-weight="400" fill="#000"><tspan x="1853.64" y="451.5">依赖追踪</tspan></text><text font-family="Alibaba-PuHuiTi-R, Alibaba PuHuiTi" font-size="18" fill="#FFF"><tspan x="2156.327" y="868.836">Observer</tspan></text><text font-family="Alibaba-PuHuiTi-M, Alibaba PuHuiTi" font-size="24" font-weight="400" fill="#FFF"><tspan x="2135.96" y="835.651">数据消费方</tspan></text><path stroke="#000" stroke-width="2" stroke-linecap="square" d="M1960.5 844.833h-22"/><path d="M1825 837.833v6h20v2h-20v6l-14-7 14-7z" fill="#000" fill-rule="nonzero"/><text font-family="Alibaba-PuHuiTi-M, Alibaba PuHuiTi" font-size="20" font-weight="400" fill="#000"><tspan x="1853.64" y="851.833">依赖追踪</tspan></text><text font-family="Alibaba-PuHuiTi-R, Alibaba PuHuiTi" font-size="18" fill="#FFF"><tspan x="2156.327" y="1269.17">Observer</tspan></text><text font-family="Alibaba-PuHuiTi-M, Alibaba PuHuiTi" font-size="24" font-weight="400" fill="#FFF"><tspan x="2135.96" y="1235.985">数据消费方</tspan></text><path stroke="#000" stroke-width="2" stroke-linecap="square" d="M1960.5 1245.167h-22"/><path d="M1825 1238.167v5.999h20v2h-20v6l-14-7 14-7z" fill="#000" fill-rule="nonzero"/><text font-family="Alibaba-PuHuiTi-M, Alibaba PuHuiTi" font-size="20" font-weight="400" fill="#000"><tspan x="1853.64" y="1252.167">依赖追踪</tspan></text><text font-family="Alibaba-PuHuiTi-R, Alibaba PuHuiTi" font-size="18" fill="#FFF"><tspan x="2156.327" y="1669.503">Observer</tspan></text><text font-family="Alibaba-PuHuiTi-M, Alibaba PuHuiTi" font-size="24" font-weight="400" fill="#FFF"><tspan x="2135.96" y="1636.318">数据消费方</tspan></text><path stroke="#000" stroke-width="2" stroke-linecap="square" d="M1960.5 1645.5h-22"/><path d="M1825 1638.5v6h20v2h-20v6l-14-7 14-7z" fill="#000" fill-rule="nonzero"/><text font-family="Alibaba-PuHuiTi-M, Alibaba PuHuiTi" font-size="20" font-weight="400" fill="#000"><tspan x="1853.64" y="1652.5">依赖追踪</tspan></text><text font-family="Alibaba-PuHuiTi-R, Alibaba PuHuiTi" font-size="18" fill="#FFF"><tspan x="1406.494" y="1115.477">display/visible/hidden</tspan></text><text font-family="Alibaba-PuHuiTi-M, Alibaba PuHuiTi" font-size="24" font-weight="400" fill="#FFF"><tspan x="1456.768" y="1089.023">显示隐藏</tspan></text><text font-family="Alibaba-PuHuiTi-R, Alibaba PuHuiTi" font-size="18" fill="#FFF"><tspan x="1297.99" y="1219.477">pattern/disabled/readOnly/readPretty/editable</tspan></text><text font-family="Alibaba-PuHuiTi-M, Alibaba PuHuiTi" font-size="24" font-weight="400" fill="#FFF"><tspan x="1456.768" y="1193.023">交互模式</tspan></text><text font-family="Alibaba-PuHuiTi-R, Alibaba PuHuiTi" font-size="18" fill="#FFF"><tspan x="1403.578" y="1531.227">setPattern/setDisplay...</tspan></text><text font-family="Alibaba-PuHuiTi-M, Alibaba PuHuiTi" font-size="24" font-weight="400" fill="#FFF"><tspan x="1464.136" y="1504.773">Setters</tspan></text><text font-family="Alibaba-PuHuiTi-R, Alibaba PuHuiTi" font-size="18" fill="#FFF"><tspan x="1461.988" y="1323.227">LifeCycles</tspan></text><text font-family="Alibaba-PuHuiTi-M, Alibaba PuHuiTi" font-size="24" font-weight="400" fill="#FFF"><tspan x="1456.768" y="1296.773">生命周期</tspan></text><text font-family="Alibaba-PuHuiTi-R, Alibaba PuHuiTi" font-size="18" fill="#FFF"><tspan x="1464.526" y="1635.227">reactions</tspan></text><text font-family="Alibaba-PuHuiTi-M, Alibaba PuHuiTi" font-size="24" font-weight="400" fill="#FFF"><tspan x="1421.344" y="1608.773">依赖追踪响应器</tspan></text><text font-family="Alibaba-PuHuiTi-R, Alibaba PuHuiTi" font-size="18" fill="#FFF"><tspan x="1408.663" y="1427.227">component/decorator</tspan></text><text font-family="Alibaba-PuHuiTi-M, Alibaba PuHuiTi" font-size="24" font-weight="400" fill="#FFF"><tspan x="1438.96" y="1400.773">组件/装饰器</tspan></text><text font-family="Alibaba-PuHuiTi-R, Alibaba PuHuiTi" font-size="18" fill="#FFF"><tspan x="649.49" y="1219.477">pattern/disabled/readOnly/readPretty/editable</tspan></text><text font-family="Alibaba-PuHuiTi-M, Alibaba PuHuiTi" font-size="24" font-weight="400" fill="#FFF"><tspan x="808.268" y="1193.023">交互模式</tspan></text><text font-family="Alibaba-PuHuiTi-R, Alibaba PuHuiTi" font-size="18" fill="#FFF"><tspan x="813.488" y="1323.727">LifeCycles</tspan></text><text font-family="Alibaba-PuHuiTi-M, Alibaba PuHuiTi" font-size="24" font-weight="400" fill="#FFF"><tspan x="808.268" y="1297.273">生命周期</tspan></text><text font-family="Alibaba-PuHuiTi-R, Alibaba PuHuiTi" font-size="18" fill="#FFF"><tspan x="761.846" y="1427.727">setValue/setDisplay...</tspan></text><text font-family="Alibaba-PuHuiTi-M, Alibaba PuHuiTi" font-size="24" font-weight="400" fill="#FFF"><tspan x="815.636" y="1401.273">Setters</tspan></text><text font-family="Alibaba-PuHuiTi-R, Alibaba PuHuiTi" font-size="18" fill="#FFF"><tspan x="728.762" y="1739.227">addProperty/removeProperty</tspan></text><text font-family="Alibaba-PuHuiTi-M, Alibaba PuHuiTi" font-size="24" font-weight="400" fill="#FFF"><tspan x="790.316" y="1712.773">ObjectField</tspan></text><text font-family="Alibaba-PuHuiTi-M, Alibaba PuHuiTi" font-size="28" font-weight="400" fill="#000"><tspan x="917" y="206">Form</tspan></text><text font-family="Alibaba-PuHuiTi-M, Alibaba PuHuiTi" font-size="28" font-weight="400" fill="#000"><tspan x="887" y="793">Field Tree</tspan></text><text font-family="Alibaba-PuHuiTi-M, Alibaba PuHuiTi" font-size="28" font-weight="400" fill="#000"><tspan x="581" y="907">Field</tspan></text><text font-family="Alibaba-PuHuiTi-M, Alibaba PuHuiTi" font-size="28" font-weight="400" fill="#000"><tspan x="1440" y="907">VoidField</tspan></text><text font-family="Alibaba-PuHuiTi-M, Alibaba PuHuiTi" font-size="64" font-weight="400" letter-spacing="-2" fill="#000"><tspan x="1924.098" y="235">Reactive</tspan></text><text font-family="Alibaba-PuHuiTi-R, Alibaba PuHuiTi" font-size="64" fill="#000"><tspan x="2178" y="233.5">领域模型</tspan></text><text font-family="Alibaba-PuHuiTi-M, Alibaba PuHuiTi" font-size="20" font-weight="400" fill="#000"><tspan x="606.32" y="1622.5">继承</tspan></text><text font-family="Alibaba-PuHuiTi-M, Alibaba PuHuiTi" font-size="24" font-weight="400" fill="#000"><tspan x="842.024" y="648.5">FormPathPattern</tspan></text><path d="M942 666.5V705h6l-7 14-7-14h6v-38.5h2z" fill="#000" fill-rule="nonzero"/><path stroke="#000" stroke-width="2" stroke-linecap="square" d="M941 549.5v64m-314.5 958.938V1598m0 31.438v21.062"/><path stroke="#000" stroke-width="2" stroke-linecap="square" stroke-dasharray="4" d="M1268.371 1091.25h-37.251"/><path d="M1100.064 1084.25v6h4.203v2h-4.203v6l-14-7 14-7zm28.203 6v2h-6v-2h6zm-8 0v2h-6v-2h6zm-8 0v2h-6v-2h6z" fill="#000" fill-rule="nonzero"/><text font-family="Alibaba-PuHuiTi-M, Alibaba PuHuiTi" font-size="20" font-weight="400" fill="#000"><tspan x="1140.398" y="1099.25">父子继承</tspan></text><path stroke="#FFF" stroke-width="2" stroke-linecap="square" stroke-dasharray="4" d="M783.294 1080.5H665"/><path d="M446.087 1073.5v6H449v2h-2.913v6l-14-7 14-7zm114.913 6v2h-6v-2h6zm-8 0v2h-6v-2h6zm-8 0v2h-6v-2h6zm-8 0v2h-6v-2h6zm-8 0v2h-6v-2h6zm-8 0v2h-6v-2h6zm-8 0v2h-6v-2h6zm-8 0v2h-6v-2h6zm-8 0v2h-6v-2h6zm-8 0v2h-6v-2h6zm-8 0v2h-6v-2h6zm-8 0v2h-6v-2h6zm-8 0v2h-6v-2h6zm-8 0v2h-6v-2h6z" fill="#FFF" fill-rule="nonzero"/><rect fill="#FFF" opacity=".9" x="560.583" y="1064" width="100" height="32" rx="16"/><text font-family="Alibaba-PuHuiTi-M, Alibaba PuHuiTi" font-size="20" font-weight="400" fill="#000"><tspan x="571.223" y="1087.5">隐式控制</tspan></text><path stroke="#000" stroke-width="2" stroke-linecap="square" stroke-dasharray="4" d="M1268.371 1195.25h-37.251"/><path d="M1100.064 1188.25v6h4.203v2h-4.203v6l-14-7 14-7zm28.203 6v2h-6v-2h6zm-8 0v2h-6v-2h6zm-8 0v2h-6v-2h6z" fill="#000" fill-rule="nonzero"/><text font-family="Alibaba-PuHuiTi-M, Alibaba PuHuiTi" font-size="20" font-weight="400" fill="#000"><tspan x="1140.398" y="1203.25">父子继承</tspan></text><text font-family="Alibaba-PuHuiTi-M, Alibaba PuHuiTi" font-size="20" font-weight="400" fill="#000"><tspan x="8.64" y="1260">校验结果</tspan></text><path d="M137.39 1299.1c.903.383 1.817.742 2.74 1.075l.928.324-.643 1.894a54.76 54.76 0 01-2.866-1.063l-.94-.39.781-1.84zm-6.893-3.545c.838.512 1.69 1 2.555 1.464l.87.457-.913 1.78a55.04 55.04 0 01-2.68-1.47l-.874-.524 1.042-1.707zm-6.42-4.606a53.4 53.4 0 002.31 1.826l.792.58-1.167 1.624a55.382 55.382 0 01-2.431-1.85l-.787-.646 1.283-1.534zm-5.661-5.492c.652.734 1.325 1.45 2.017 2.146l.698.69-1.393 1.436a55.491 55.491 0 01-2.133-2.188l-.684-.756 1.495-1.328zm-4.782-6.252a53.286 53.286 0 001.679 2.419l.589.785-1.589 1.215a55.329 55.329 0 01-1.788-2.477l-.565-.848 1.674-1.094zm-3.79-6.85c.411.893.846 1.773 1.306 2.64l.467.864-1.75.968a54.986 54.986 0 01-1.405-2.713l-.434-.922 1.816-.836zm-2.75-7.377c.274.944.574 1.88.9 2.805l.333.923-1.874.698a54.735 54.735 0 01-.987-2.893l-.293-.976 1.921-.557zm-1.619-7.684c.131.976.29 1.946.473 2.91l.194.96-1.957.413a54.934 54.934 0 01-.547-3.006l-.145-1.01 1.982-.267zm-2.47-7.867l2 .026a54.255 54.255 0 00.05 3.124l.041.804-1.996.12a56.022 56.022 0 01-.095-4.074zm.703-8.136l1.975.32a53.312 53.312 0 00-.389 2.916l-.094.98-1.992-.173c.117-1.357.284-2.705.5-4.043zm1.905-7.96l1.905.61a52.733 52.733 0 00-.818 2.827l-.238.953-1.945-.466a54.736 54.736 0 011.096-3.924zm3.062-7.573l1.794.886c-.435.88-.845 1.772-1.23 2.675l-.377.907-1.854-.75a55.24 55.24 0 011.667-3.718zm4.124-6.995l1.643 1.14a53.23 53.23 0 00-1.61 2.465l-.507.841-1.723-1.015a55.204 55.204 0 012.197-3.43zm5.143-6.358l1.458 1.37a53.467 53.467 0 00-1.957 2.201l-.624.758-1.555-1.259a55.46 55.46 0 012.678-3.07zm5.997-5.512l1.242 1.568a53.65 53.65 0 00-2.258 1.891l-.729.658-1.353-1.473a55.31 55.31 0 013.098-2.644zm3.477-9.713l15.623.957-10.14 11.924-2.288-5.377c-.486.294-.966.597-1.442.907l-.817.543-1.123-1.655a55.205 55.205 0 012.59-1.654l-2.403-5.645z" fill="#000" fill-rule="nonzero"/></g></svg>