<svg xmlns="http://www.w3.org/2000/svg" width="1939" height="1199"><defs><linearGradient x1="50%" y1="0%" x2="50%" y2="155.592%" id="a"><stop stop-color="#5009C0" offset="0%"/><stop stop-color="#FF6351" offset="100%"/></linearGradient></defs><g fill="none" fill-rule="evenodd"><path d="M1869 59c5.523 0 10 4.477 10 10v1067c0 5.523-4.477 10-10 10h-180c-5.523 0-10-4.477-10-10V69c0-5.523 4.477-10 10-10h180zm-612 534.5c5.523 0 10 4.477 10 10v532c0 5.523-4.477 10-10 10H71c-5.523 0-10-4.477-10-10v-532c0-5.523 4.477-10 10-10h1186zm388 0c5.523 0 10 4.477 10 10v532c0 5.523-4.477 10-10 10h-344c-5.523 0-10-4.477-10-10v-532c0-5.523 4.477-10 10-10h344zm0-215c5.523 0 10 4.477 10 10v171c0 5.523-4.477 10-10 10H71c-5.523 0-10-4.477-10-10v-171c0-5.523 4.477-10 10-10h1574zm0-215c5.523 0 10 4.477 10 10v171c0 5.523-4.477 10-10 10H71c-5.523 0-10-4.477-10-10v-171c0-5.523 4.477-10 10-10h1574zm0-104.5c5.523 0 10 4.477 10 10v60c0 5.523-4.477 10-10 10H71c-5.523 0-10-4.477-10-10V69c0-5.523 4.477-10 10-10h1574z" fill="url(#a)"/><rect fill="#FFF" x="85" y="680.5" width="1158" height="337" rx="10"/><rect fill="#9A2F91" x="109" y="704" width="732" height="289" rx="10"/><rect fill="#9A2F91" x="865" y="704.5" width="354" height="289" rx="10"/><rect fill="#FFF" x="474.5" y="1041.5" width="370" height="80" rx="10"/><rect fill="#FFF" x="85" y="1041.5" width="370" height="80" rx="10"/><rect fill="#FFF" x="85" y="465.5" width="579" height="80" rx="10"/><rect fill="#FFF" x="688" y="465.5" width="579" height="80" rx="10"/><rect fill="#FFF" x="1291" y="465.5" width="340" height="80" rx="10"/><rect fill="#FFF" x="133" y="785" width="684" height="80" rx="10"/><rect fill="#FFF" x="133" y="889" width="683" height="80" rx="10"/><rect fill="#FFF" x="85" y="250.5" width="579" height="80" rx="10"/><rect fill="#FFF" x="688" y="250.5" width="579" height="80" rx="10"/><rect fill="#FFF" x="1291" y="250.5" width="340" height="80" rx="10"/><text font-family="Alibaba-PuHuiTi-M, Alibaba PuHuiTi" font-size="24" font-weight="400" fill="#FFF"><tspan x="798.5" y="217">拓展组件库</tspan></text><text font-family="Alibaba-PuHuiTi-M, Alibaba PuHuiTi" font-size="24" font-weight="400" fill="#3F2676"><tspan x="311.248" y="299">Ant Design</tspan></text><text font-family="Alibaba-PuHuiTi-M, Alibaba PuHuiTi" font-size="24" font-weight="400" fill="#3F2676"><tspan x="930.208" y="299">Element</tspan></text><text font-family="Alibaba-PuHuiTi-M, Alibaba PuHuiTi" font-size="24" font-weight="400" fill="#3F2676"><tspan x="1449.48" y="299">…</tspan></text><text font-family="Alibaba-PuHuiTi-M, Alibaba PuHuiTi" font-size="24" font-weight="400" fill="#FFF"><tspan x="822" y="432">UI桥接</tspan></text><text font-family="Alibaba-PuHuiTi-M, Alibaba PuHuiTi" font-size="24" font-weight="400" fill="#3F2676"><tspan x="342.268" y="514">React</tspan></text><text font-family="Alibaba-PuHuiTi-M, Alibaba PuHuiTi" font-size="24" font-weight="400" fill="#3F2676"><tspan x="954.952" y="514">Vue</tspan></text><text font-family="Alibaba-PuHuiTi-M, Alibaba PuHuiTi" font-size="24" font-weight="400" fill="#3F2676"><tspan x="1449.48" y="514">…</tspan></text><text font-family="Alibaba-PuHuiTi-M, Alibaba PuHuiTi" font-size="24" font-weight="400" fill="#FFF"><tspan x="616.5" y="647">表单内核</tspan></text><text font-family="Alibaba-PuHuiTi-M, Alibaba PuHuiTi" font-size="24" font-weight="400" fill="#FFF"><tspan x="409.5" y="754">FormGraph</tspan></text><text font-family="Alibaba-PuHuiTi-M, Alibaba PuHuiTi" font-size="24" font-weight="400" fill="#3F2676"><tspan x="433.132" y="833.5">Models</tspan></text><text font-family="Alibaba-PuHuiTi-M, Alibaba PuHuiTi" font-size="24" font-weight="400" fill="#FFF"><tspan x="953.14" y="857.5">Form Lifecycles</tspan></text><text font-family="Alibaba-PuHuiTi-M, Alibaba PuHuiTi" font-size="24" font-weight="400" fill="#3F2676"><tspan x="395.9" y="937.5">Path System</tspan></text><text font-family="Alibaba-PuHuiTi-M, Alibaba PuHuiTi" font-size="24" font-weight="400" fill="#FFF"><tspan x="798.96" y="107.5">表单配置器</tspan></text><text font-family="Alibaba-PuHuiTi-M, Alibaba PuHuiTi" font-size="24" font-weight="400" fill="#FFF"><tspan x="1735.512" y="594.5">Formily</tspan> <tspan x="1728.3" y="627.5">Devtools</tspan></text><text font-family="Alibaba-PuHuiTi-M, Alibaba PuHuiTi" font-size="24" font-weight="400" fill="#3F2676"><tspan x="216.192" y="1090">Validator</tspan></text><text font-family="Alibaba-PuHuiTi-M, Alibaba PuHuiTi" font-size="24" font-weight="400" fill="#3F2676"><tspan x="618.268" y="1090">Shared</tspan></text><rect fill="#FFF" x="873" y="1041.5" width="370" height="80" rx="10"/><text font-family="Alibaba-PuHuiTi-M, Alibaba PuHuiTi" font-size="24" font-weight="400" fill="#3F2676"><tspan x="1008.68" y="1090">Reactive</tspan></text><text font-family="Alibaba-PuHuiTi-M, Alibaba PuHuiTi" font-size="24" font-weight="400" fill="#FFF"><tspan x="1395.516" y="878">JSON Schema</tspan></text></g></svg>